<?xml version="1.0" encoding="utf-8"?>
<!-- Generator: Adobe Illustrator 21.0.2, SVG Export Plug-In . SVG Version: 6.00 Build 0)  -->
<!DOCTYPE svg PUBLIC "-//W3C//DTD SVG 1.1//EN" "http://www.w3.org/Graphics/SVG/1.1/DTD/svg11.dtd">
<svg version="1.1" id="Layer_1" xmlns="http://www.w3.org/2000/svg" xmlns:xlink="http://www.w3.org/1999/xlink" x="0px" y="0px"
	 viewBox="0 0 266.9 67.6" style="enable-background:new 0 0 266.9 67.6;" xml:space="preserve">
<style type="text/css">
	.st0{fill:#F26522;}
	.st1{fill:#5D87A1;}
</style>
<g>
	<path class="st0" d="M66,25.3C64.7,24,63,23,61.2,23c-1.5,0-3,1.2-3,2.8c0,2.4,3.4,3,6.6,4.5c3.3,1.4,6.6,3.7,6.6,9.2
		c0,7.1-5.7,11.4-12.5,11.4c-4.3,0-8.5-2-11.3-5.4l4.2-5.4c1.8,2,4.1,3.7,6.8,3.7c2,0,3.7-1.4,3.7-3.5c0-2.8-3.2-3.5-6.4-4.8
		c-3.2-1.4-6.4-3.3-6.4-8.5c0-6,4.2-10.4,10.2-10.4c3.4,0,7.7,1,10.3,3.3L66,25.3z"/>
	<path class="st0" d="M93.5,24.7c4.7,0,7.6,4.6,7.6,9.1c0,4.3-2.9,9-7.6,9c-4.7,0-7.6-4.7-7.6-9C86,29.3,88.8,24.7,93.5,24.7z
		 M93.5,16.7c-10,0-16.8,7.1-16.8,17.1c0,10,6.8,17.1,16.8,17.1s16.8-7.1,16.8-17.1C110.3,23.8,103.5,16.7,93.5,16.7z"/>
	<path class="st0" d="M129.1,35.9l6.6-18.1h10l-14.8,32.8h-4.7l-14.7-32.8h10.1L129.1,35.9z"/>
	<path class="st0" d="M162.2,21h0.1c1.8-2.8,4.6-4.3,8-4.3c1.3,0,2.6,0.3,3.8,0.8l-1.1,8.5c-1.1-0.8-2.4-1.2-3.8-1.2
		c-6.3,0-7,5.6-7,10.6v14.4H153v-32h9.1V21z"/>
	<path class="st0" d="M187.8,29.6c0.5-3.4,2.5-6.6,6.1-6.6c3.5,0,5.6,3.3,6.1,6.6H187.8z M208.7,35.3v-1.1c0-9.7-4.7-17.5-15.2-17.5
		c-10.3,0-15.5,7.6-15.5,17.4c0,9.7,6,16.8,15.9,16.8c6.7,0,12.3-3.6,14.6-10l-8.4-1.4c-1.2,2.6-3.1,4.4-6.1,4.4
		c-4.8,0-6.3-4.6-6.3-8.6H208.7z"/>
	<path class="st0" d="M224.7,20.7h0.1c1.9-2.9,5.1-4,8.4-4c8.6,0,11.1,6.1,11.1,13.5v19.6h-9.1v-17c0-3.9,0.2-8.8-5-8.8
		c-5.4,0-5.5,6.1-5.5,9.9v15.9h-9.1v-32h9.1V20.7z"/>
	<g>
		<path class="st0" d="M32.2,0c1.8,2.1,3.1,4.3,4.1,6.7c1.3,3.1,1.2,5.5-0.2,7.1c-0.9,1-2.2,2-3.9,3c-2.5,1.5-3.9,2.3-4.1,2.4
			L14,29.2c-2.7,1.9-4.7,3.6-6,5.1c-1.4,1.6-2.3,3.5-2.8,5.9C3.3,38.8,1.9,37,1,34.8c-1.6-4-1.3-7.3,0.9-9.8c1.1-1.2,3.3-3,6.8-5.5
			L23.1,9.3c3.7-2.6,6.1-4.5,7.1-5.7C31,2.6,31.7,1.5,32.2,0z"/>
		<path class="st1" d="M32.5,27.4c1.8,2.1,3.1,4.3,4.1,6.7c1.3,3.1,1.2,5.5-0.2,7.1c-0.9,1-2.2,2-3.9,3c-2.5,1.5-3.9,2.3-4.1,2.4
			l-14.1,10c-2.7,1.9-4.7,3.6-6,5.1c-1.4,1.6-2.3,3.5-2.8,5.9c-1.9-1.4-3.2-3.2-4.2-5.4c-1.6-4-1.3-7.3,0.9-9.8
			c1.1-1.2,3.3-3,6.8-5.5l14.4-10.2c3.7-2.6,6.1-4.5,7.1-5.7C31.3,30,32,28.9,32.5,27.4z"/>
	</g>
</g>
</svg>
