<?xml version="1.0" encoding="utf-8"?>
<!-- Generator: Adobe Illustrator 21.0.2, SVG Export Plug-In . SVG Version: 6.00 Build 0)  -->
<!DOCTYPE svg PUBLIC "-//W3C//DTD SVG 1.1//EN" "http://www.w3.org/Graphics/SVG/1.1/DTD/svg11.dtd">
<svg version="1.1" id="Layer_1" xmlns="http://www.w3.org/2000/svg" xmlns:xlink="http://www.w3.org/1999/xlink" x="0px" y="0px"
	 viewBox="0 0 61.7 111.3" style="enable-background:new 0 0 61.7 111.3;" xml:space="preserve">
<style type="text/css">
	.st0{fill:#F26522;}
	.st1{fill:#5D87A1;}
</style>
<g>
	<path class="st0" d="M53,0c2.9,3.4,5.1,7.1,6.7,11c2.1,5.1,2,9.1-0.4,11.7c-1.5,1.7-3.6,3.4-6.4,5c-4.1,2.4-6.4,3.8-6.7,4L23,48.1
		c-4.5,3.2-7.8,6-9.9,8.4c-2.3,2.6-3.8,5.8-4.6,9.7c-3.1-2.3-5.3-5.2-6.8-8.9c-2.7-6.6-2.2-12,1.4-16.2c1.7-2,5.5-5,11.2-9.1
		L38,15.2c6.1-4.3,10-7.5,11.7-9.4C51.1,4.3,52.1,2.4,53,0z"/>
	<path class="st1" d="M53.5,45.1c2.9,3.4,5.1,7.1,6.7,11c2.1,5.1,2,9.1-0.4,11.7c-1.5,1.7-3.6,3.4-6.4,5c-4.1,2.4-6.4,3.8-6.7,4
		L23.5,93.2c-4.5,3.2-7.8,6-9.9,8.4c-2.3,2.6-3.8,5.8-4.6,9.7C6,109,3.7,106,2.2,102.3c-2.7-6.6-2.2-12,1.4-16.2
		c1.7-2,5.5-5,11.2-9.1l23.6-16.8c6.1-4.3,10-7.5,11.7-9.4C51.6,49.4,52.6,47.5,53.5,45.1z"/>
</g>
</svg>
